Dasavathaaram (2008) - Tamil Movie - Ayngaran DVDRip - AVI - 1CD - Team TMR - TamilMovieRockers








General



Complete name                            : Dasavathaaram (2008) - Tamil Movie - Ayngaran DVDRip - AVI - 1CD - Team TMR - TamilMovieRockers.avi
Format                                   : AVI
Format/Info                              : Audio Video Interleave
File size                                : 794 MiB
Duration                                 : 3h 4mn
Overall bit rate mode                    : Variable
Overall bit rate                         : 602 Kbps




Video



ID                                       : 0
Format                                   : MPEG-4 Visual
Format profile                           : Advanced Simple@L5
Format settings, BVOP                    : 2
Format settings, QPel                    : No
Format settings, GMC                     : No warppoints
Format settings, Matrix                  : Default (MPEG)
Codec ID                                 : XVID
Codec ID/Hint                            : XviD
Duration                                 : 3h 4mn
Bit rate                                 : 498 Kbps
Width                                    : 720 pixels
Height                                   : 304 pixels
Display aspect ratio                     : 2.35:1
Frame rate                               : 23.976 fps
Color space                              : YUV
Chroma subsampling                       : 4:2:0
Bit depth                                : 8 bits
Scan type                                : Progressive
Compression mode                         : Lossy
Bits/(Pixel*Frame)                       : 0.095
Stream size                              : 657 MiB (83%)
Writing library                          : XviD 1.2.1 (UTC 2008-12-04)




Audio



ID                                       : 1
Format                                   : MPEG Audio
Format version                           : Version 1
Format profile                           : Layer 3
Mode                                     : Joint stereo
Mode extension                           : MS Stereo
Codec ID                                 : 55
Codec ID/Hint                            : MP3
Duration                                 : 3h 4mn
Bit rate mode                            : Variable
Bit rate                                 : 96.0 Kbps
Channel(s)                               : 2 channels
Sampling rate                            : 32.0 KHz
Compression mode                         : Lossy
Stream size                              : 124 MiB (16%)
Alignment                                : Aligned on interleaves
Interleave, duration                     : 36 ms (0.86 video frame)
Interleave, preload duration             : 110 ms
Title                                    : VTS_03_1 T80 3_2ch 448Kbps DELAY 0ms
Writing library                          : LAME3.99r
Encoding settings                        : -m j -V 4 -q 2 -lowpass 15.1 --abr 96







Credits : Team TMR &gt;&gt; TamilMovieRockers






-: SCREENS :-







[IMG]http://img818.imageshack.us/img818/7320/dasavathaaram2008tamilm.jpg[/IMG]
[IMG]http://img853.imageshack.us/img853/7320/dasavathaaram2008tamilm.jpg[/IMG]
[IMG]http://img194.imageshack.us/img194/7320/dasavathaaram2008tamilm.jpg[/IMG]
[IMG]http://img202.imageshack.us/img202/7320/dasavathaaram2008tamilm.jpg[/IMG]
[IMG]http://img850.imageshack.us/img850/7320/dasavathaaram2008tamilm.jpg[/IMG]
[IMG]http://img15.imageshack.us/img15/7320/dasavathaaram2008tamilm.jpg[/IMG]
[IMG]http://img339.imageshack.us/img339/7320/dasavathaaram2008tamilm.jpg[/IMG]
[IMG]http://img441.imageshack.us/img441/7320/dasavathaaram2008tamilm.jpg[/IMG]







!! SEEDING STARTED !! DOWNLOAD AND ENJOY !!